<?xml version="1.0" encoding="UTF-8"?>
<svg version="1.1" xmlns="http://www.w3.org/2000/svg" width="512" height="512">
<path d="M0 0 C1.83129883 0.17285156 1.83129883 0.17285156 4 1 C5.39331055 3.19433594 5.39331055 3.19433594 6.69921875 6.234375 C7.21403809 7.41966797 7.72885742 8.60496094 8.25927734 9.82617188 C8.8411356 11.21677228 9.42127283 12.60809362 10 14 C10.47883636 15.13755737 10.47883636 15.13755737 10.96734619 16.2980957 C13.61939901 22.60027379 16.2178522 28.9240246 18.8125 35.25 C20.07219649 38.31234532 21.33287058 41.37428713 22.59353638 44.43623352 C23.45248771 46.52275782 24.3111084 48.60941826 25.16940308 50.69621277 C29.50819734 61.2438649 33.87701756 71.77898633 38.25 82.3125 C43.18496509 94.20085217 48.1054559 106.09494228 53 118 C61.45490366 115.83075166 69.36696002 112.44965693 77.36621094 109.02127075 C81.54646438 107.23035282 85.73459916 105.45801567 89.921875 103.68359375 C91.25164368 103.1193998 91.25164368 103.1193998 92.60827637 102.54380798 C103.37697463 97.98118529 114.18794524 93.52116207 125 89.0625 C125.93984741 88.67457275 126.87969482 88.28664551 127.84802246 87.88696289 C132.39816926 86.00888417 136.94969341 84.13431089 141.50390625 82.26611328 C145.37493324 80.67605242 149.2344607 79.06071447 153.08984375 77.43310547 C154.08935059 77.01483994 155.08885742 76.5965744 156.11865234 76.16563416 C158.03470622 75.36373947 159.94796774 74.55512879 161.85791016 73.73878479 C162.72077637 73.37953415 163.58364258 73.02028351 164.47265625 72.65014648 C165.22812744 72.33077621 165.98359863 72.01140594 166.76196289 71.68235779 C169.27311972 70.9167282 171.38927254 70.87855201 174 71 C175.12814285 74.31668403 174.90821722 76.00950154 173.54736328 79.2097168 C173.20110397 80.03962128 172.85484467 80.86952576 172.49809265 81.72457886 C171.91509148 83.0732756 171.91509148 83.0732756 171.3203125 84.44921875 C170.92105057 85.39781769 170.52178864 86.34641663 170.11042786 87.32376099 C168.79223582 90.44946756 167.45851547 93.56830394 166.125 96.6875 C165.20653756 98.85910097 164.28931355 101.03122612 163.37329102 103.20385742 C161.49864422 107.64791832 159.61904064 112.08983098 157.73583984 116.53027344 C154.11128467 125.08769936 150.54800631 133.6702689 146.99478149 142.25750732 C145.94513902 144.79403978 144.89398468 147.32994124 143.8425293 149.86572266 C138.16984597 163.55340653 132.55995547 177.26612122 127 191 C130.46361275 193.93885638 134.30882382 195.528934 138.48046875 197.1953125 C139.22871414 197.49985855 139.97695953 197.8044046 140.74787903 198.11817932 C142.37230892 198.77862871 143.99781687 199.43643135 145.62426758 200.09188843 C149.12721214 201.50375125 152.62481642 202.92862756 156.12283325 204.35264587 C157.95970344 205.10026228 159.7968459 205.84721005 161.63424683 206.59352112 C171.44199431 210.57867767 181.22302569 214.62754155 191 218.6875 C191.84930084 219.04008881 192.69860168 219.39267761 193.57363892 219.75595093 C198.57872825 221.8341914 203.5828821 223.91467259 208.58654785 225.99633789 C210.97890417 226.99122705 213.37171755 227.98500933 215.76464844 228.97851562 C219.45593509 230.51140167 223.14579412 232.04767134 226.83447266 233.58682251 C228.18038517 234.14792133 229.52673062 234.70798294 230.87353516 235.26693726 C232.70601434 236.02779102 234.53665324 236.79307254 236.3671875 237.55859375 C237.90028564 238.19752563 237.90028564 238.19752563 239.46435547 238.84936523 C242 240 242 240 245 242 C244.75219727 243.85424805 244.75219727 243.85424805 244 246 C237.1209125 251.03364661 227.80225313 253.60540089 219.89129639 256.75866699 C215.80213097 258.38961757 211.71920062 260.03599743 207.63671875 261.68359375 C206.77721619 262.03040192 205.91771362 262.37721008 205.03216553 262.73452759 C194.94228277 266.81657566 184.90873197 271.03226607 174.875 275.25 C158.95790586 281.93803161 143.01141606 288.54055481 127 295 C129.02878293 301.39596153 131.39299344 307.58104807 134 313.76171875 C134.38836029 314.69011566 134.77672058 315.61851257 135.17684937 316.57504272 C136.0130612 318.57324201 136.85069967 320.57084476 137.68963623 322.56790161 C139.93777903 327.92008152 142.1749658 333.27684346 144.4140625 338.6328125 C144.87479156 339.73401932 145.33552063 340.83522614 145.81021118 341.96980286 C150.28490746 352.66884831 154.72506474 363.38203825 159.15185547 374.10098267 C159.95677002 376.04986796 160.76209737 377.99858282 161.56787109 379.94711304 C163.39876835 384.37464899 165.22497239 388.80391936 167.03808594 393.23876953 C168.30670842 396.3375603 169.60704861 399.41940239 170.93847656 402.49169922 C171.23178864 403.1830748 171.52510071 403.87445038 171.82730103 404.58677673 C172.60386024 406.41672794 173.39437156 408.2407413 174.18603516 410.06420898 C175 413 175 413 174.14599609 415.40258789 C173.57872803 416.19330688 173.57872803 416.19330688 173 417 C168.37276943 416.30828893 164.26469206 414.58801524 159.984375 412.78125 C158.79740524 412.28682404 158.79740524 412.28682404 157.5864563 411.78240967 C154.97251662 410.69250066 152.36129633 409.59622526 149.75 408.5 C147.91182053 407.73226972 146.07343827 406.96502479 144.23486328 406.19824219 C140.40548076 404.60079222 136.57698653 403.00123875 132.74902344 401.40039062 C127.25642797 399.10503977 121.75828176 396.82328375 116.2578125 394.546875 C115.39201065 394.18851059 114.5262088 393.83014618 113.63417053 393.46092224 C111.90421612 392.7449648 110.1742409 392.0290576 108.44424438 391.3132019 C97.81993579 386.91666213 87.19832521 382.5148643 76.60546875 378.04296875 C75.87177063 377.73358368 75.13807251 377.42419861 74.38214111 377.10543823 C70.95636629 375.66057431 67.53217308 374.21218641 64.11083984 372.75683594 C62.93086426 372.25829102 61.75088867 371.75974609 60.53515625 371.24609375 C59.507854 370.80966553 58.48055176 370.3732373 57.42211914 369.92358398 C55.12058013 368.88123699 55.12058013 368.88123699 53 369 C52.59386475 369.99290039 52.18772949 370.98580078 51.76928711 372.00878906 C43.8205134 391.43615481 35.84480205 410.85146794 27.74707031 430.21728516 C24.256878 438.56699705 20.79169237 446.92639922 17.3515625 455.296875 C16.17964039 458.14304295 15.00734035 460.98905494 13.83493042 463.83502197 C13.07396134 465.68531892 12.31476612 467.53634646 11.55740356 469.38812256 C10.50493754 471.96111572 9.44645624 474.53155749 8.38671875 477.1015625 C8.0728421 477.8736908 7.75896545 478.64581909 7.43557739 479.44134521 C5.22755825 484.77244175 5.22755825 484.77244175 3 487 C1.04956055 486.96582031 1.04956055 486.96582031 -1 486 C-2.44604492 483.68261719 -2.44604492 483.68261719 -3.79296875 480.546875 C-4.30778809 479.36158203 -4.82260742 478.17628906 -5.35302734 476.95507812 C-5.90386641 475.63748989 -6.452806 474.3191062 -7 473 C-7.27861877 472.33637451 -7.55723755 471.67274902 -7.84429932 470.98901367 C-9.6980395 466.56925357 -11.51502305 462.13511646 -13.31903076 457.69485474 C-15.05918577 453.41246124 -16.80963703 449.13427328 -18.55859375 444.85546875 C-18.92116272 443.96774277 -19.28373169 443.08001678 -19.6572876 442.16539001 C-23.69576332 432.28362861 -27.78247108 422.42197228 -31.875 412.5625 C-32.23203003 411.70210114 -32.58906006 410.84170227 -32.95690918 409.95523071 C-38.62458021 396.29792904 -44.30293217 382.64506754 -50 369 C-62.97826055 373.71564893 -75.70658973 378.97014165 -88.4375 384.3125 C-91.61447997 385.64176777 -94.79190023 386.96997944 -97.96932983 388.298172 C-100.12460235 389.19919064 -102.27973316 390.10054831 -104.4347229 391.00224304 C-115.19661665 395.50449537 -125.97202744 399.9739053 -136.75 404.4375 C-139.23841769 405.46829865 -141.72681471 406.49914562 -144.21495056 407.53062439 C-145.74090311 408.16240319 -147.26746146 408.79272123 -148.79469299 409.42140198 C-152.09914626 410.78364902 -155.3842547 412.16969024 -158.65429688 413.61376953 C-159.72228516 414.08282715 -160.79027344 414.55188477 -161.890625 415.03515625 C-162.79329102 415.44258057 -163.69595703 415.85000488 -164.62597656 416.26977539 C-167.23286172 417.07162581 -168.47567595 416.93543734 -171 416 C-170.49704762 409.48597061 -168.77211033 404.31123866 -166.1953125 398.3359375 C-165.6085952 396.94135567 -165.6085952 396.94135567 -165.01002502 395.51860046 C-163.72399496 392.46685283 -162.42439988 389.42107578 -161.125 386.375 C-160.2238727 384.24193783 -159.3239056 382.10838518 -158.42504883 379.97436523 C-157.03070797 376.66447919 -155.63560192 373.35493772 -154.23683167 370.04692078 C-149.73202555 359.39170777 -145.30791061 348.70390389 -140.90106201 338.00787354 C-139.34669011 334.23533797 -137.78983972 330.46382756 -136.23297119 326.69232178 C-135.16625979 324.10675967 -134.10141326 321.52043498 -133.03662109 318.93408203 C-131.66851551 315.6134605 -130.29036584 312.29725301 -128.90478516 308.98388672 C-128.57589798 308.19429062 -128.2470108 307.40469452 -127.90815735 306.59117126 C-127.2904103 305.10865962 -126.66994798 303.62727543 -126.04631042 302.14723206 C-124.51821815 298.69113763 -124.51821815 298.69113763 -124 295 C-144.59955759 286.45083547 -165.20285256 277.910828 -185.81768799 269.39855957 C-188.73984427 268.19169437 -191.66170584 266.98411823 -194.58349609 265.77636719 C-202.41439759 262.54007757 -210.24533155 259.30417304 -218.08905029 256.0990448 C-220.84956694 254.97086222 -223.6087417 253.83942088 -226.36779785 252.70767212 C-228.19520971 251.95991946 -230.02481991 251.2175463 -231.85449219 250.4753418 C-233.45019043 249.82045776 -233.45019043 249.82045776 -235.078125 249.15234375 C-235.98981445 248.78101318 -236.90150391 248.40968262 -237.84082031 248.02709961 C-240 247 -240 247 -242 245 C-241.92822266 243.02832031 -241.92822266 243.02832031 -241 241 C-238.93505859 239.69824219 -238.93505859 239.69824219 -236.1484375 238.546875 C-235.09011719 238.10110107 -234.03179687 237.65532715 -232.94140625 237.19604492 C-231.76449219 236.7188501 -230.58757812 236.24165527 -229.375 235.75 C-228.12577817 235.23083242 -226.87709374 234.71037016 -225.62890625 234.1887207 C-222.16928757 232.74807473 -218.7016396 231.32777788 -215.23181152 229.91192627 C-212.18365043 228.66643661 -209.13906711 227.41231772 -206.09431458 226.15852356 C-199.58165214 223.47691309 -193.06534763 220.80434164 -186.545578 218.14006042 C-175.78293756 213.74112619 -165.0424695 209.29048855 -154.3125 204.8125 C-153.19766235 204.34727432 -153.19766235 204.34727432 -152.06030273 203.87265015 C-150.62142253 203.27207947 -149.18260841 202.67135045 -147.74386597 202.07044983 C-146.38646229 201.50373825 -145.02882409 200.93758804 -143.67092896 200.37205505 C-140.58290807 199.08497206 -137.50156626 197.78603521 -134.42724609 196.46630859 C-133.35168457 196.00691895 -132.27612305 195.5475293 -131.16796875 195.07421875 C-130.23621826 194.67162842 -129.30446777 194.26903809 -128.34448242 193.85424805 C-126 193 -126 193 -123 193 C-130.80118493 173.9394384 -138.61716148 154.88512987 -146.50616455 135.86071777 C-147.56290047 133.31153394 -148.61818209 130.76175147 -149.67333984 128.21191406 C-152.8563323 120.52716481 -156.05477987 112.84993484 -159.31214905 105.19636536 C-160.73063587 101.86262557 -162.14197653 98.52587942 -163.55319214 95.1890564 C-164.21907654 93.62113853 -164.88885752 92.05486904 -165.56277466 90.49038696 C-166.4901873 88.33735102 -167.40452788 86.17918243 -168.31640625 84.01953125 C-168.59049316 83.39332886 -168.86458008 82.76712646 -169.14697266 82.12194824 C-170.7554861 78.26862398 -171.27263018 75.16326527 -171 71 C-165.41050765 71.51369346 -160.9959335 72.55497581 -155.78515625 74.78125 C-155.10943069 75.06633926 -154.43370514 75.35142853 -153.73750305 75.64515686 C-151.50855304 76.58775127 -149.28573477 77.54401319 -147.0625 78.5 C-145.47330263 79.17423675 -143.88360985 79.84730685 -142.29345703 80.51928711 C-138.92637353 81.94272936 -135.56109842 83.37033504 -132.19677734 84.80029297 C-123.61213719 88.44190083 -114.99173685 91.99770216 -106.375 95.5625 C-104.66012207 96.27262253 -102.94527823 96.98282743 -101.23046875 97.69311523 C-98.67870361 98.75005461 -96.12688703 99.80686845 -93.57485962 100.86317444 C-88.51369071 102.95807765 -83.45415791 105.05687228 -78.39581299 107.15858459 C-75.20572997 108.48325445 -72.01443777 109.80499107 -68.82281494 111.12594604 C-67.32617079 111.74607556 -65.8300283 112.3674173 -64.33441162 112.99002075 C-62.28807288 113.84165256 -60.23999127 114.68894512 -58.19140625 115.53515625 C-57.03842041 116.013479 -55.88543457 116.49180176 -54.69750977 116.98461914 C-52.16841611 118.11742783 -52.16841611 118.11742783 -50 118 C-41.34911833 97.55706733 -32.77293364 77.08504479 -24.3125 56.5625 C-13.01206772 29.16234174 -13.01206772 29.16234174 -8.27841187 17.8276062 C-7.72407942 16.49924017 -7.17085081 15.17041289 -6.61880493 13.84109497 C-5.87266203 12.04511846 -5.12200927 10.25101752 -4.37109375 8.45703125 C-3.95786865 7.46678955 -3.54464355 6.47654785 -3.11889648 5.45629883 C-2 3 -2 3 0 0 Z " fill="#FFFFFF" transform="translate(255,10)"/>
</svg>
